<?xml version="1.0" ?><svg data-name="Layer 1" id="Layer_1" viewBox="0 0 64 64" xmlns="http://www.w3.org/2000/svg"><path d="M38.45,32.11l-6-3a1,1,0,0,0-.9,0l-6,3A1,1,0,0,0,25,33v6a1,1,0,0,0,.55.89l6,3a1,1,0,0,0,.9,0l6-3A1,1,0,0,0,39,39V33A1,1,0,0,0,38.45,32.11ZM37,38.38l-5,2.5-5-2.5V33.62l5-2.5,5,2.5Z"/><rect height="2" width="2" x="31" y="35"/><rect height="2" width="2" x="16" y="35"/><rect height="2" width="2" x="46" y="35"/><rect height="2" width="2" x="31" y="20"/><rect height="2" width="2" x="31" y="50"/><rect height="2" transform="translate(-11.69 22.57) rotate(-45)" width="2" x="20.39" y="24.39"/><rect height="2" transform="translate(-20.48 43.78) rotate(-45)" width="2" x="41.61" y="45.61"/><rect height="2" transform="translate(-5.48 37.56) rotate(-45)" width="2" x="41.61" y="24.39"/><rect height="2" transform="translate(-26.69 28.78) rotate(-45)" width="2" x="20.39" y="45.61"/><path d="M51,15a11.83,11.83,0,0,0-9.36,4.66,18.82,18.82,0,0,0-3.76-1.72A16,16,0,0,0,39,12a1.09,1.09,0,0,0,0-.18A3,3,0,0,0,38,6h-.12C36.6,2.91,34.41,1,32,1s-4.6,1.91-5.88,5H26a3,3,0,0,0-1,5.82A1.09,1.09,0,0,0,25,12a16,16,0,0,0,1.12,5.94,18.82,18.82,0,0,0-3.76,1.72A11.83,11.83,0,0,0,13,15,12.19,12.19,0,0,0,1,27.35a12.52,12.52,0,0,0,1,5A1,1,0,0,0,3,33H3a1,1,0,0,0,.92-.6A10,10,0,0,1,13,26.29a9.47,9.47,0,0,1,2.49.34,18.88,18.88,0,0,0-.24,18.31,10.18,10.18,0,0,0,3,18,1,1,0,0,0,.29,0,1,1,0,0,0,.71-.29,1,1,0,0,0,.25-1,8.15,8.15,0,0,1,3.23-9.15,18.87,18.87,0,0,0,18.56,0,8.15,8.15,0,0,1,3.23,9.15,1,1,0,0,0,.25,1,1,1,0,0,0,.71.29,1,1,0,0,0,.29,0,10.18,10.18,0,0,0,3-18,18.88,18.88,0,0,0-.24-18.31A9.47,9.47,0,0,1,51,26.29a10,10,0,0,1,9.11,6.11A1,1,0,0,0,61,33h0a1,1,0,0,0,.92-.6,12.52,12.52,0,0,0,1-5A12.19,12.19,0,0,0,51,15ZM40.28,21.16A17.16,17.16,0,0,1,47,28H40.16ZM38,8a1,1,0,1,1-1,1A1,1,0,0,1,38,8ZM29,9a3,3,0,0,0-1-2.24C28.93,4.43,30.43,3,32,3s3.07,1.43,4,3.76A3,3,0,0,0,35,9a3,3,0,0,0,2,2.81A1.28,1.28,0,0,1,37,12a13.7,13.7,0,0,1-1.07,5.41,19,19,0,0,0-7.86,0A13.7,13.7,0,0,1,27,12a1.28,1.28,0,0,1,0-.19A3,3,0,0,0,29,9Zm7.79,10.7L32,24.57,27.21,19.7a16.74,16.74,0,0,1,9.58,0ZM26,10a1,1,0,1,1,1-1A1,1,0,0,1,26,10ZM24,21v6.83l-6.83-.12A17.16,17.16,0,0,1,24,21ZM13,24.29A11.92,11.92,0,0,0,3.22,29.5,10.38,10.38,0,0,1,13,17a9.82,9.82,0,0,1,7.69,3.77,19.07,19.07,0,0,0-4.06,4.11A11.79,11.79,0,0,0,13,24.29ZM15,36a16.87,16.87,0,0,1,.7-4.79L20.57,36,15.7,40.79A16.87,16.87,0,0,1,15,36Zm2.13,23.33c0,.34,0,.68.05,1a8.18,8.18,0,0,1-.9-13.69,19.08,19.08,0,0,0,4.64,4.76A10.27,10.27,0,0,0,17.13,59.33Zm6.59-8.49A17.16,17.16,0,0,1,17,44h6.83ZM32,53a16.87,16.87,0,0,1-4.79-.7L32,47.43l4.79,4.87A16.87,16.87,0,0,1,32,53Zm6.31-10.57a1,1,0,0,0-.3.71v7.55l-5.3-5.39a1,1,0,0,0-1.42,0L25.72,51,25.86,43a1,1,0,0,0-.29-.72,1,1,0,0,0-.71-.3H17.31l5.39-5.3a1,1,0,0,0,0-1.42L17,29.72l7.94.14h0a1,1,0,0,0,1-1V21.31l5.3,5.39a1,1,0,0,0,1.42,0L38.28,21,38.14,29a1,1,0,0,0,.29.72,1,1,0,0,0,.71.3h7.55l-5.39,5.3a1,1,0,0,0,0,1.42L47,42.28,39,42.14A1,1,0,0,0,38.31,42.43ZM40,51V44.16l6.83.12A17.16,17.16,0,0,1,40,51ZM51,53.2a8.25,8.25,0,0,1-4.18,7.14c0-.33,0-.67,0-1a10.27,10.27,0,0,0-3.79-7.92,19.08,19.08,0,0,0,4.64-4.76A8.26,8.26,0,0,1,51,53.2ZM49,36a16.87,16.87,0,0,1-.7,4.79L43.43,36l4.87-4.79A16.87,16.87,0,0,1,49,36Zm11.78-6.5A11.92,11.92,0,0,0,51,24.29a11.79,11.79,0,0,0-3.63.59,19.07,19.07,0,0,0-4.06-4.11A9.82,9.82,0,0,1,51,17a10.38,10.38,0,0,1,9.78,12.5Z"/></svg>